<svg id="Notifications" xmlns="http://www.w3.org/2000/svg" width="21.034" height="26.135" viewBox="0 0 21.034 26.135">
  <path id="Path_2025" data-name="Path 2025" d="M0,0H21.034V21.25H0Z" fill="none"/>
  <path id="Path_2026" data-name="Path 2026" d="M14.517,28.135a2.637,2.637,0,0,0,2.629-2.629H11.888A2.637,2.637,0,0,0,14.517,28.135ZM22.4,20.248V13.674c0-4.036-2.143-7.415-5.916-8.309V4.472a1.972,1.972,0,0,0-3.944,0v.894c-3.76.894-5.916,4.259-5.916,8.309v6.573L4,22.877v1.315H25.034V22.877Zm-2.629,1.315H9.259V13.674c0-3.26,1.985-5.916,5.259-5.916s5.259,2.656,5.259,5.916Z" transform="translate(-4 -2)" fill="#42424280"/>
</svg>
