<svg xmlns="http://www.w3.org/2000/svg" width="27.154" height="34.116" viewBox="0 0 27.154 34.116">
  <g id="Group_2595" data-name="Group 2595" transform="translate(-327.461 -686.946)">
    <path id="Path_1788" data-name="Path 1788" d="M27.152,7.659a.694.694,0,0,0-.2-.492L19.987.2a.694.694,0,0,0-.492-.2V0H.7A.7.7,0,0,0,0,.7V33.42a.7.7,0,0,0,.7.7H26.457a.7.7,0,0,0,.7-.7V7.659ZM20.191,2.377l4.585,4.585H20.191Zm5.57,30.346H1.392V1.392H18.8V7.658a.7.7,0,0,0,.7.7h6.266Z" transform="translate(327.461 686.946)" fill="#42424280"/>
    <path id="Path_1789" data-name="Path 1789" d="M3.012,5.492,1.764,4.244l-.985.985,1.74,1.74a.7.7,0,0,0,.985,0L6.985,3.487,6,2.5Z" transform="translate(329.671 694.046)" fill="#42424280"/>
    <rect id="Rectangle_863" data-name="Rectangle 863" width="3.481" height="1.392" transform="translate(337.904 697.389)" fill="#42424280"/>
    <rect id="Rectangle_864" data-name="Rectangle 864" width="7.659" height="1.392" transform="translate(337.904 699.478)" fill="#42424280"/>
    <rect id="Rectangle_865" data-name="Rectangle 865" width="9.051" height="1.392" transform="translate(342.43 697.389)" fill="#42424280"/>
    <path id="Path_1790" data-name="Path 1790" d="M3.012,6.943,1.764,5.7.779,6.68l1.74,1.74a.7.7,0,0,0,.985,0L6.985,4.939,6,3.954Z" transform="translate(329.671 698.164)" fill="#42424280"/>
    <rect id="Rectangle_866" data-name="Rectangle 866" width="3.481" height="1.392" transform="translate(337.904 702.959)" fill="#42424280"/>
    <rect id="Rectangle_867" data-name="Rectangle 867" width="7.659" height="1.392" transform="translate(337.904 705.048)" fill="#42424280"/>
    <rect id="Rectangle_868" data-name="Rectangle 868" width="9.051" height="1.392" transform="translate(342.43 702.959)" fill="#42424280"/>
    <path id="Path_1791" data-name="Path 1791" d="M3.012,8.4,1.764,7.147l-.985.985,1.74,1.74a.7.7,0,0,0,.985,0L6.985,6.391,6,5.406Z" transform="translate(329.671 702.282)" fill="#42424280"/>
    <rect id="Rectangle_869" data-name="Rectangle 869" width="3.481" height="1.392" transform="translate(337.904 708.529)" fill="#42424280"/>
    <rect id="Rectangle_870" data-name="Rectangle 870" width="7.659" height="1.392" transform="translate(337.904 710.618)" fill="#42424280"/>
    <rect id="Rectangle_871" data-name="Rectangle 871" width="9.051" height="1.392" transform="translate(342.43 708.529)" fill="#42424280"/>
    <path id="Path_1792" data-name="Path 1792" d="M3.012,9.847,1.764,8.6l-.985.985,1.74,1.74a.7.7,0,0,0,.985,0L6.985,7.843,6,6.858Z" transform="translate(329.671 706.401)" fill="#42424280"/>
    <rect id="Rectangle_872" data-name="Rectangle 872" width="3.481" height="1.392" transform="translate(337.904 714.099)" fill="#42424280"/>
    <rect id="Rectangle_873" data-name="Rectangle 873" width="7.659" height="1.392" transform="translate(337.904 716.188)" fill="#42424280"/>
    <rect id="Rectangle_874" data-name="Rectangle 874" width="9.051" height="1.392" transform="translate(342.43 714.099)" fill="#42424280"/>
    <rect id="Rectangle_875" data-name="Rectangle 875" width="3.481" height="1.392" transform="translate(330.594 690.079)" fill="#42424280"/>
    <rect id="Rectangle_876" data-name="Rectangle 876" width="7.31" height="1.392" transform="translate(330.594 692.167)" fill="#42424280"/>
  </g>
</svg>
