<svg xmlns="http://www.w3.org/2000/svg" width="36.261" height="27.321" viewBox="0 0 36.261 27.321">
  <path id="Path_1849" data-name="Path 1849" d="M30.576,9.179A5.353,5.353,0,0,0,26.821,0a5.386,5.386,0,0,0-2.782.777A.6.6,0,1,0,24.655,1.8a4.172,4.172,0,0,1,6.338,3.566,4.149,4.149,0,0,1-1.9,3.495,4.192,4.192,0,0,1-3.425.516.6.6,0,1,0-.327,1.146,5.384,5.384,0,0,0,1.481.208,5.312,5.312,0,0,0,2.647-.717,7.72,7.72,0,0,1,5.1,7.274v2.98H29.134a11.332,11.332,0,0,0-6.58-9.119,6.556,6.556,0,1,0-9.346,0,11.484,11.484,0,0,0-3.337,2.3,11.264,11.264,0,0,0-3.25,6.816H1.192v-2.98A7.718,7.718,0,0,1,3.46,11.807,7.829,7.829,0,0,1,6.3,10.014a5.314,5.314,0,0,0,2.642.714,5.379,5.379,0,0,0,1.481-.208.6.6,0,1,0-.327-1.146,4.193,4.193,0,0,1-3.428-.517A4.17,4.17,0,0,1,8.94,1.192a4.193,4.193,0,0,1,2.166.606A.6.6,0,1,0,11.722.777,5.365,5.365,0,0,0,3.576,5.364,5.328,5.328,0,0,0,5.181,9.176a9.085,9.085,0,0,0-2.565,1.788A8.906,8.906,0,0,0,0,17.285v3.576a.6.6,0,0,0,.6.6h5.96v4.768a.6.6,0,0,0,.6.6H28.609a.6.6,0,0,0,.6-.6V21.457h5.96a.6.6,0,0,0,.6-.6V17.285A8.908,8.908,0,0,0,30.576,9.179ZM12.517,6.556a5.364,5.364,0,1,1,5.364,5.364A5.37,5.37,0,0,1,12.517,6.556Zm15.5,19.073H7.748V21.457a10.086,10.086,0,0,1,2.965-7.165,10.237,10.237,0,0,1,3.537-2.281,6.535,6.535,0,0,0,7.267,0,10.136,10.136,0,0,1,6.5,9.449v4.172Z" transform="translate(0.25 0.25)" fill="#42424280" stroke="#42424280" stroke-width="0.5"/>
</svg>
