<svg xmlns="http://www.w3.org/2000/svg" width="34.325" height="32" viewBox="0 0 34.325 32">
  <g id="noun_message_1788527" transform="translate(-28 3)">
    <g id="Group_2657" data-name="Group 2657" transform="translate(28 -3)">
      <g id="Group_2652" data-name="Group 2652" transform="translate(0 0)">
        <g id="Group_2651" data-name="Group 2651">
          <path id="Path_2151" data-name="Path 2151" d="M99.485,145.4a3.621,3.621,0,0,0,.037.517c-.017-.112-.029-.219-.045-.331a3.939,3.939,0,0,0,.248.914l-.124-.3a3.94,3.94,0,0,0,.335.624c.029.045.062.087.1.132.124.178-.207-.244-.062-.079.079.087.153.178.236.26s.17.161.26.236c.153.132-.256-.182-.079-.062l.132.1a3.63,3.63,0,0,0,.624.335l-.3-.124a3.883,3.883,0,0,0,.914.248c-.112-.017-.219-.029-.331-.045a10.6,10.6,0,0,0,1.356.037h9.258c1.34,0,2.679-.033,4.019,0a1.351,1.351,0,0,1,1.013.5c.19.215.38.43.571.641.666.753,1.336,1.505,2,2.258q1.786,2.016,3.577,4.032c.021.025.045.05.066.074l-2.117.877V149.1a1.258,1.258,0,0,1,1.241-1.24h3.651a6.272,6.272,0,0,0,.835-.037c-.112.017-.219.029-.331.045a3.938,3.938,0,0,0,.914-.248l-.3.124a3.942,3.942,0,0,0,.624-.335c.045-.029.087-.062.132-.1.178-.124-.244.207-.079.062.087-.079.178-.153.261-.236s.161-.17.236-.261c.132-.153-.182.256-.062.079l.1-.132a3.63,3.63,0,0,0,.335-.624l-.124.3a3.885,3.885,0,0,0,.248-.914c-.017.112-.029.219-.045.331a14.7,14.7,0,0,0,.037-1.861V132.129c0-.571,0-1.141,0-1.708a3.68,3.68,0,0,0-.037-.521c.017.112.029.219.045.331a3.939,3.939,0,0,0-.248-.914l.124.3a3.939,3.939,0,0,0-.335-.624c-.029-.045-.062-.087-.1-.132-.124-.178.207.244.062.079-.079-.087-.153-.178-.236-.261s-.17-.161-.261-.236c-.153-.132.256.182.079.062l-.132-.1a3.631,3.631,0,0,0-.624-.335l.3.124a3.883,3.883,0,0,0-.914-.248c.112.017.219.029.331.045a8.5,8.5,0,0,0-1.075-.037H104.8c-.947,0-1.894,0-2.841,0a3.855,3.855,0,0,0-.533.037c.112-.017.219-.029.331-.045a3.938,3.938,0,0,0-.914.248l.3-.124a3.94,3.94,0,0,0-.624.335c-.046.029-.087.062-.132.1-.178.124.244-.207.079-.062-.087.079-.178.153-.26.236s-.161.17-.236.261c-.132.153.182-.256.062-.079l-.1.132a3.632,3.632,0,0,0-.335.624l.124-.3a3.883,3.883,0,0,0-.248.914c.017-.112.029-.219.045-.331a14.131,14.131,0,0,0-.037,1.824v11.764c0,.629.012,1.253,0,1.881v.033a1.241,1.241,0,0,1-2.481,0V130.421a4.941,4.941,0,0,1,4.945-4.945h23.483a9.738,9.738,0,0,1,2.022.12,4.959,4.959,0,0,1,3.2,2.328,5.083,5.083,0,0,1,.67,2.572v14.646a6.085,6.085,0,0,1-.161,1.522,4.976,4.976,0,0,1-2.452,3.1,5.623,5.623,0,0,1-2.667.583h-3.631l1.24-1.241v7.137a1.246,1.246,0,0,1-2.117.877l-2.142-2.415-3.411-3.846-.777-.877c.294.12.583.244.877.364H102.049a5.185,5.185,0,0,1-2.506-.62,4.954,4.954,0,0,1-2.415-3.2A5.422,5.422,0,0,1,97,145.406a1.243,1.243,0,0,1,2.485,0Z" transform="translate(-97 -125.474)" fill="#42424280"/>
        </g>
      </g>
      <g id="Group_2654" data-name="Group 2654" transform="translate(6.014 7.877)">
        <g id="Group_2653" data-name="Group 2653">
          <path id="Path_2152" data-name="Path 2152" d="M270.446,319.9H252.79c-.811,0-1.626.018-2.441,0h-.036a1.336,1.336,0,1,1,0-2.672h17.655c.811,0,1.626-.018,2.441,0h.036a1.336,1.336,0,0,1,0,2.672Z" transform="translate(-248.976 -317.222)" fill="#42424280"/>
        </g>
      </g>
      <g id="Group_2656" data-name="Group 2656" transform="translate(12.247 14.54)">
        <g id="Group_2655" data-name="Group 2655">
          <path id="Path_2153" data-name="Path 2153" d="M263.809,482.072h-13.5a1.336,1.336,0,0,1,0-2.672h13.5a1.336,1.336,0,1,1,0,2.672Z" transform="translate(-248.976 -479.4)" fill="#42424280"/>
        </g>
      </g>
    </g>
  </g>
</svg>
