<svg xmlns="http://www.w3.org/2000/svg" width="26.706" height="34.611" viewBox="0 0 26.706 34.611">
  <g id="Group_2592" data-name="Group 2592" transform="translate(-28.81 -1155.075)">
    <path id="Path_1754" data-name="Path 1754" d="M23.5,43.692V40.7h2.136a1.068,1.068,0,0,0,1.068-1.068V34.5a1.068,1.068,0,0,0-1.068-1.068H23.5V29.377a1.068,1.068,0,0,0-1.068-1.068H15.649a9.614,9.614,0,1,0-12.07,0H1.068A1.068,1.068,0,0,0,0,29.377V34.5a1.068,1.068,0,0,0,1.068,1.068H3.2v2.991H1.068A1.068,1.068,0,0,0,0,39.632V44.76a1.068,1.068,0,0,0,1.068,1.068H22.432ZM2.136,20.831a7.478,7.478,0,1,1,7.478,7.478A7.486,7.486,0,0,1,2.136,20.831Zm0,12.6V30.446H21.365v2.991h-3.2v-.891a1.068,1.068,0,0,0-2.136,0v.89h-3.2v-.89a1.068,1.068,0,0,0-2.136,0v.89h-3.2v-.89a1.068,1.068,0,0,0-2.136,0v.89h-3.2ZM21.365,43.691h-3.2v-.534a1.068,1.068,0,0,0-2.136,0v.534h-3.2v-.534a1.068,1.068,0,0,0-2.136,0v.534h-3.2v-.534a1.068,1.068,0,0,0-2.136,0v.534h-3.2V40.7H21.365Zm0-5.127v-.641a1.068,1.068,0,0,0-2.136,0v.641h-3.2v-.641a1.068,1.068,0,0,0-2.136,0v.641h-3.2v-.641a1.068,1.068,0,0,0-2.136,0v.641h-3.2V35.573H24.57v2.991h-3.2Z" transform="translate(28.81 1143.858)" fill="#474b98"/>
    <path id="Path_1755" data-name="Path 1755" d="M4.385,8.818A1.19,1.19,0,0,1,3.1,7.753,1.19,1.19,0,0,1,4.385,6.689,1.19,1.19,0,0,1,5.667,7.753a1.068,1.068,0,1,0,2.136,0A3.234,3.234,0,0,0,5.452,4.712a1.067,1.067,0,0,0-2.134,0A3.234,3.234,0,0,0,.967,7.754a3.319,3.319,0,0,0,3.418,3.2A1.19,1.19,0,0,1,5.667,12.02a1.19,1.19,0,0,1-1.282,1.064A1.19,1.19,0,0,1,3.1,12.02a1.068,1.068,0,1,0-2.136,0A3.234,3.234,0,0,0,3.319,15.06a1.067,1.067,0,0,0,2.131,0A3.234,3.234,0,0,0,7.8,12.02,3.319,3.319,0,0,0,4.385,8.818Z" transform="translate(34.039 1154.815)" fill="#474b98"/>
    <path id="Path_1772" data-name="Path 1772" d="M4.385,8.818A1.19,1.19,0,0,1,3.1,7.753,1.19,1.19,0,0,1,4.385,6.689,1.19,1.19,0,0,1,5.667,7.753a1.068,1.068,0,1,0,2.136,0A3.234,3.234,0,0,0,5.452,4.712a1.067,1.067,0,0,0-2.134,0A3.234,3.234,0,0,0,.967,7.754a3.319,3.319,0,0,0,3.418,3.2A1.19,1.19,0,0,1,5.667,12.02a1.19,1.19,0,0,1-1.282,1.064A1.19,1.19,0,0,1,3.1,12.02a1.068,1.068,0,1,0-2.136,0A3.234,3.234,0,0,0,3.319,15.06a1.067,1.067,0,0,0,2.131,0A3.234,3.234,0,0,0,7.8,12.02,3.319,3.319,0,0,0,4.385,8.818Z" transform="translate(34.039 1154.815)" fill="#474b98"/>
  </g>
</svg>
