<svg id="monetization_on-24px_2_" data-name="monetization_on-24px (2)" xmlns="http://www.w3.org/2000/svg" width="34" height="34" viewBox="0 0 34 34">
  <path id="Path_2154" data-name="Path 2154" d="M0,0H24V24H0Z" fill="none"/>
  <path id="Path_2155" data-name="Path 2155" d="M18,2A16,16,0,1,0,34,18,16.006,16.006,0,0,0,18,2Zm0,28.8A12.8,12.8,0,1,1,30.8,18,12.817,12.817,0,0,1,18,30.8Zm.5-14.176c-2.832-.72-3.744-1.5-3.744-2.672,0-1.344,1.264-2.288,3.36-2.288,2.208,0,3.04,1.056,3.1,2.624h2.736a4.965,4.965,0,0,0-3.984-4.752V6.8H16.24V9.5c-2.416.512-4.352,2.08-4.352,4.5,0,2.864,2.384,4.3,5.856,5.136,3.12.736,3.744,1.84,3.744,2.992,0,.848-.624,2.224-3.36,2.224-2.56,0-3.568-1.152-3.712-2.624H11.664c.16,2.72,2.176,4.256,4.576,4.752V29.2h3.744V26.528c2.432-.464,4.352-1.856,4.368-4.432-.016-3.52-3.04-4.736-5.856-5.472Z" fill="#42424280"/>
</svg>
