<svg xmlns="http://www.w3.org/2000/svg" width="28.83" height="28.83" viewBox="0 0 28.83 28.83">
  <path id="Path_1174" data-name="Path 1174" d="M17.67,19.066a3.258,3.258,0,0,1-2.79,3.218V17.205a2.328,2.328,0,0,1,2.325-2.325h3.208a2.329,2.329,0,0,1-2.278,1.86H15.81v.93h2.325a3.259,3.259,0,0,0,3.255-3.255V13.95H17.205a3.243,3.243,0,0,0-2.325.982V12.067a6.048,6.048,0,1,0-.929,0v2.865a3.244,3.244,0,0,0-2.325-.981H7.44v.465A3.259,3.259,0,0,0,10.7,17.67H13.02v-.93H10.7a2.329,2.329,0,0,1-2.278-1.86h3.208a2.328,2.328,0,0,1,2.325,2.325v5.078a3.258,3.258,0,0,1-2.79-3.218V18.6H0v.93H4.65v1.73l1.889.63a8.485,8.485,0,0,0,.415.956l.829-.421a7.517,7.517,0,0,1-.437-1.048l-.073-.223L5.58,20.59V19.53H7.929a6.5,6.5,0,0,0,12.972,0H23.25v1.06l-1.693.564-.073.223a7.5,7.5,0,0,1-.437,1.048l-.107.209.8,1.6-2.157,2.157-1.6-.8-.209.106a7.334,7.334,0,0,1-1.048.437l-.223.073L15.94,27.9H12.89l-.564-1.693-.223-.073a7.389,7.389,0,0,1-1.048-.437l-.209-.106-1.6.8L6.852,24l-.657.657,2.868,2.868,1.784-.892c.247.117.5.222.744.311l.63,1.888h4.39l.63-1.889c.247-.089.5-.193.744-.311l1.784.892,3.1-3.1-.892-1.784c.117-.246.221-.5.31-.744l1.89-.629V19.53h4.65V18.6H17.67ZM9.3,6.045a5.115,5.115,0,1,1,5.115,5.115A5.121,5.121,0,0,1,9.3,6.045ZM19.972,19.53a5.575,5.575,0,0,1-11.113,0h1.4a4.185,4.185,0,0,0,8.319,0Z" fill="#757575"/>
</svg>
