<svg xmlns="http://www.w3.org/2000/svg" width="26.216" height="26.216" viewBox="0 0 26.216 26.216">
  <g id="Group_2810" data-name="Group 2810" transform="translate(-332.326 -815.638)">
    <path id="Path_1654" data-name="Path 1654" d="M24.9,6.992h-.874V4.37h1.311a.437.437,0,0,0,.309-.746l-3.5-3.5a.437.437,0,0,0-.618,0l-3.5,3.5a.437.437,0,0,0,.309.746h1.311V6.992H15.293V4.37H16.6a.437.437,0,0,0,.309-.746l-3.5-3.5a.437.437,0,0,0-.618,0l-3.5,3.5a.437.437,0,0,0,.309.746h1.311V6.992H6.554V4.37H7.865a.437.437,0,0,0,.309-.746l-3.5-3.5a.437.437,0,0,0-.618,0l-3.5,3.5a.437.437,0,0,0,.309.746H2.185V6.992H1.311A1.311,1.311,0,0,0,0,8.3v16.6a1.311,1.311,0,0,0,1.311,1.311H24.9a1.311,1.311,0,0,0,1.311-1.311V8.3A1.311,1.311,0,0,0,24.9,6.992ZM15.293,20.973H25.342v1.748H15.293ZM20.1,3.5h-.693l2.441-2.441L24.287,3.5h-.693a.437.437,0,0,0-.437.437V6.992H20.536V3.933A.437.437,0,0,0,20.1,3.5Zm-8.739,0h-.693l2.441-2.441L15.549,3.5h-.693a.437.437,0,0,0-.437.437V6.992H11.8V3.933A.437.437,0,0,0,11.36,3.5Zm-8.739,0H1.929L4.369,1.056,6.81,3.5H6.117a.437.437,0,0,0-.437.437V6.992H3.059V3.933A.437.437,0,0,0,2.622,3.5ZM.874,8.3a.437.437,0,0,1,.437-.437H24.9a.437.437,0,0,1,.437.437V20.1H15.293v-.874h6.991a.437.437,0,0,0,.437-.437,1.311,1.311,0,0,1,1.311-1.311.437.437,0,0,0,.437-.437V10.924a.437.437,0,0,0-.437-.437A1.311,1.311,0,0,1,22.72,9.176a.437.437,0,0,0-.437-.437H3.932a.437.437,0,0,0-.437.437,1.311,1.311,0,0,1-1.311,1.311.437.437,0,0,0-.437.437v6.117a.437.437,0,0,0,.437.437A1.311,1.311,0,0,1,3.5,18.789a.437.437,0,0,0,.437.437h6.991V20.1H.874ZM4.326,18.352a2.192,2.192,0,0,0-1.7-1.7v-5.33a2.192,2.192,0,0,0,1.7-1.7h5.89a5.235,5.235,0,0,0,0,8.739Zm4.413-4.369a4.369,4.369,0,1,1,4.369,4.369A4.369,4.369,0,0,1,8.739,13.983ZM21.89,9.613a2.192,2.192,0,0,0,1.7,1.7v5.33a2.192,2.192,0,0,0-1.7,1.7H16a5.235,5.235,0,0,0,0-8.739ZM.874,20.973H10.923v1.748H.874Zm0,3.932V23.595H10.923v1.748H1.311A.437.437,0,0,1,.874,24.906Zm10.923.437V19.226h2.622v6.117Zm13.545-.437a.437.437,0,0,1-.437.437H15.293V23.595H25.342Zm0,0" transform="translate(332.326 815.637)" fill="#42424280"/>
    <path id="Path_1655" data-name="Path 1655" d="M224.784,224.377a2.123,2.123,0,0,0-1.169-.329,1.261,1.261,0,0,1-.684-.183.266.266,0,0,1,0-.509,1.434,1.434,0,0,1,1.368,0,.437.437,0,1,0,.485-.727,1.933,1.933,0,0,0-.732-.275V222.3a.437.437,0,1,0-.874,0v.054a1.933,1.933,0,0,0-.732.275,1.122,1.122,0,0,0,0,1.963,2.123,2.123,0,0,0,1.169.329,1.262,1.262,0,0,1,.684.183.266.266,0,0,1,0,.509,1.434,1.434,0,0,1-1.368,0,.437.437,0,1,0-.485.727,1.983,1.983,0,0,0,.732.286v.044a.437.437,0,1,0,.874,0v-.044a1.985,1.985,0,0,0,.732-.284,1.122,1.122,0,0,0,0-1.963Zm0,0" transform="translate(121.699 605.135)" fill="#42424280"/>
  </g>
</svg>
