<svg id="Group_1640" data-name="Group 1640" xmlns="http://www.w3.org/2000/svg" width="31.999" height="44.107" viewBox="0 0 31.999 44.107">
  <path id="Path_1565" data-name="Path 1565" d="M4.682,8.39a4.934,4.934,0,0,0-1.074.093v6.865a4.338,4.338,0,0,0,.825.047c2.148.015,3.549-1.167,3.549-3.674A3.009,3.009,0,0,0,4.682,8.39Z" transform="translate(10.672 24.818)" fill="#fa3e3e"/>
  <path id="Path_1566" data-name="Path 1566" d="M2.3,8.382a4.055,4.055,0,0,0-.981.093v3.1a3.654,3.654,0,0,0,.793.062c1.262,0,2.04-.638,2.04-1.712C4.148,8.958,3.478,8.382,2.3,8.382Z" transform="translate(3.889 24.795)" fill="#fa3e3e"/>
  <path id="Path_1567" data-name="Path 1567" d="M31.991,10.57a.854.854,0,0,0-.206-.56L23.281.3s-.005,0-.007-.006A.864.864,0,0,0,23.1.145L23.045.112A.873.873,0,0,0,22.875.04c-.015-.005-.03-.011-.047-.016A.846.846,0,0,0,22.63,0H1.73A1.732,1.732,0,0,0,0,1.73V42.377a1.732,1.732,0,0,0,1.73,1.73H30.27A1.732,1.732,0,0,0,32,42.377V10.667A.89.89,0,0,0,31.991,10.57ZM9.422,37.146a4.866,4.866,0,0,1-3.409,1.105,6.083,6.083,0,0,1-.809-.046v3.751H2.854V31.605a19.44,19.44,0,0,1,3.207-.218,5.033,5.033,0,0,1,3.206.84,3.066,3.066,0,0,1,1.12,2.428A3.351,3.351,0,0,1,9.422,37.146Zm10.009,3.565a7.528,7.528,0,0,1-4.839,1.354A20.633,20.633,0,0,1,11.9,41.91v-10.3a21.286,21.286,0,0,1,3.207-.218,6.753,6.753,0,0,1,4.3,1.121,4.642,4.642,0,0,1,1.775,3.954A5.323,5.323,0,0,1,19.431,40.711Zm9.715-7.3H25.114v2.4h3.767v1.931H25.114v4.218H22.733V31.466h6.413v1.945ZM1.73,29.369V1.73H21.766v8.85a.865.865,0,0,0,.865.865H30.27V29.369Z" transform="translate(0 0)" fill="#fa3e3e"/>
  <path id="Path_1568" data-name="Path 1568" d="M21.849,14.158c-.051,0-1.269-.116-3.14-.116-.586,0-1.176.011-1.759.033a93.332,93.332,0,0,1-8.34-7.1c.03-.171.05-.306.059-.41.214-2.255-.024-3.778-.7-4.526a1.716,1.716,0,0,0-1.78-.465A2.128,2.128,0,0,0,4.727,2.93c-.277.924.168,2.045,1.338,3.345.019.02.416.436,1.137,1.14-.469,2.236-1.7,7.059-2.291,9.375a12.166,12.166,0,0,0-3.465,2.68l-.059.067-.038.081a2.8,2.8,0,0,0-.2,2.022,1.376,1.376,0,0,0,.825.782l.1.028a1.357,1.357,0,0,0,.258.02c.722,0,2.5-.379,3.458-3.9l.232-.892a28.325,28.325,0,0,1,10.523-2.289c1.554,1.153,3.1,2.211,4.6,3.149l.049.028a3.611,3.611,0,0,0,1.5.362h0a2.212,2.212,0,0,0,2.2-1.851l.015-.08a2.208,2.208,0,0,0-.488-1.751A3.891,3.891,0,0,0,21.849,14.158ZM2.359,21.174a.085.085,0,0,1-.013-.024,1.58,1.58,0,0,1,.141-.9,10.18,10.18,0,0,1,1.95-1.669C3.7,20.957,2.636,21.163,2.359,21.174ZM7.017,5.394h0C5.89,4.14,5.907,3.518,5.968,3.309c.1-.35.548-.482.552-.483.226-.061.364-.049.486.085.276.3.514,1.22.42,2.9C7.159,5.544,7.017,5.394,7.017,5.394ZM6.435,16.075,6.454,16h0c.564-2.209,1.378-5.445,1.846-7.523l.017.016,0-.01c1.513,1.425,3.834,3.51,6.613,5.678H14.9l.046.035A29.38,29.38,0,0,0,6.435,16.075Zm17.191.725c-.2.732-.583.832-.934.832h0a2.342,2.342,0,0,1-.89-.211c-1.02-.64-2.064-1.336-3.117-2.082h.025c1.806,0,3.009.11,3.056.113a2.684,2.684,0,0,1,1.667.636A.9.9,0,0,1,23.625,16.8Z" transform="translate(3.024 4.431)" fill="#fa3e3e"/>
</svg>
